<svg xmlns="http://www.w3.org/2000/svg" viewBox="0 0 1200 800" fill="none">
  <rect width="1200" height="800" rx="12" fill="#f8fafc" stroke="#e2e8f0" stroke-width="2"/>
  <rect x="0" y="0" width="1200" height="56" rx="12" fill="#071a33"/>
  <rect x="0" y="28" width="1200" height="28" fill="#071a33"/>
  <rect x="16" y="14" width="100" height="28" rx="4" fill="#1e3a5f"/>
  <rect x="1080" y="14" width="100" height="28" rx="6" fill="#0056B3"/>
  <!-- Metric row -->
  <rect x="24" y="76" width="270" height="120" rx="10" fill="white" stroke="#e2e8f0" stroke-width="1"/>
  <rect x="310" y="76" width="270" height="120" rx="10" fill="white" stroke="#e2e8f0" stroke-width="1"/>
  <rect x="596" y="76" width="270" height="120" rx="10" fill="white" stroke="#e2e8f0" stroke-width="1"/>
  <rect x="882" y="76" width="294" height="120" rx="10" fill="white" stroke="#e2e8f0" stroke-width="1"/>
  <!-- Main chart -->
  <rect x="24" y="212" width="582" height="340" rx="10" fill="white" stroke="#e2e8f0" stroke-width="1"/>
  <rect x="622" y="212" width="554" height="340" rx="10" fill="white" stroke="#e2e8f0" stroke-width="1"/>
  <!-- Bottom row -->
  <rect x="24" y="568" width="380" height="180" rx="10" fill="white" stroke="#e2e8f0" stroke-width="1"/>
  <rect x="420" y="568" width="380" height="180" rx="10" fill="white" stroke="#e2e8f0" stroke-width="1"/>
  <rect x="816" y="568" width="360" height="180" rx="10" fill="white" stroke="#e2e8f0" stroke-width="1"/>
  <text x="600" y="780" font-family="system-ui,sans-serif" font-size="12" fill="#94a3b8" text-anchor="middle">IMAGEM TEMPORÁRIA — Substituir pela captura oficial do dashboard SGS</text>
</svg>
