<svg xmlns="http://www.w3.org/2000/svg" viewBox="0 0 800 600" fill="none">
  <rect width="800" height="600" rx="12" fill="#f8fafc" stroke="#e2e8f0" stroke-width="2"/>
  <!-- Top bar -->
  <rect x="0" y="0" width="800" height="48" rx="12" fill="#071a33"/>
  <rect x="0" y="24" width="800" height="24" fill="#071a33"/>
  <rect x="12" y="12" width="80" height="24" rx="4" fill="#1e3a5f"/>
  <rect x="700" y="12" width="80" height="24" rx="4" fill="#0056B3"/>
  <!-- Sidebar -->
  <rect x="0" y="48" width="200" height="552" fill="#f1f5f9"/>
  <rect x="16" y="68" width="168" height="10" rx="3" fill="#e2e8f0"/>
  <rect x="16" y="88" width="168" height="10" rx="3" fill="#cbd5e1"/>
  <rect x="16" y="108" width="168" height="10" rx="3" fill="#cbd5e1"/>
  <rect x="16" y="128" width="168" height="10" rx="3" fill="#cbd5e1"/>
  <rect x="16" y="148" width="168" height="10" rx="3" fill="#cbd5e1"/>
  <!-- Metric cards -->
  <rect x="220" y="68" width="176" height="96" rx="8" fill="white" stroke="#e2e8f0" stroke-width="1"/>
  <rect x="412" y="68" width="176" height="96" rx="8" fill="white" stroke="#e2e8f0" stroke-width="1"/>
  <rect x="604" y="68" width="176" height="96" rx="8" fill="white" stroke="#e2e8f0" stroke-width="1"/>
  <!-- Chart area -->
  <rect x="220" y="180" width="560" height="240" rx="8" fill="white" stroke="#e2e8f0" stroke-width="1"/>
  <rect x="240" y="200" width="520" height="200" rx="4" fill="#e8f0fe"/>
  <line x1="260" y1="360" x2="760" y2="360" stroke="#cbd5e1" stroke-width="1"/>
  <line x1="260" y1="320" x2="760" y2="320" stroke="#cbd5e1" stroke-width="1"/>
  <line x1="260" y1="280" x2="760" y2="280" stroke="#cbd5e1" stroke-width="1"/>
  <path d="M260 340 L320 300 L380 320 L440 260 L500 280 L560 220 L620 240 L680 200 L740 230" stroke="#0056B3" stroke-width="3" fill="none" stroke-linecap="round"/>
  <!-- Bottom items -->
  <rect x="220" y="436" width="176" height="104" rx="8" fill="white" stroke="#e2e8f0" stroke-width="1"/>
  <rect x="412" y="436" width="176" height="104" rx="8" fill="white" stroke="#e2e8f0" stroke-width="1"/>
  <rect x="604" y="436" width="176" height="104" rx="8" fill="white" stroke="#e2e8f0" stroke-width="1"/>
  <text x="400" y="580" font-family="system-ui,sans-serif" font-size="11" fill="#94a3b8" text-anchor="middle">IMAGEM TEMPORÁRIA — Dashboard ilustrativo</text>
</svg>
